<svg id="Layer_1" data-name="Layer 1" xmlns="http://www.w3.org/2000/svg" viewBox="0 0 371.62 507.13"><defs><style>.cls-1{fill:#fff;}</style></defs><title>initials</title><path class="cls-1" d="M390.6,424c.78,1.34,1.57,2.09,1.47,2.68s-1,1.19-1.71,1.51c-.19.09-1.24-.89-1.19-1.28A11.73,11.73,0,0,1,390.6,424Z" transform="translate(-169.26 -204.29)"/><path d="M533.36,209.26c2.05-1.24,3,0,4.27,1.39,2.82,2.92,3.48,6.32,3.19,10.12,0,.42,0,1-.19,1.23-1.93,1.52-1.37,3.62-1.5,5.6-.09,1.44-.55,2.86-.61,4.3-.27,6.29-.36,12.58-.73,18.86a18.85,18.85,0,0,1-1.45,6.46c-.89,2-2.58,3.65-3.8,5.52a30.13,30.13,0,0,0-1.81,3.58c-1.81,3.84-3.58,7.7-5.43,11.53-1.08,2.24-2.23,4.46-3.46,6.63-2.8,4.91-5.7,9.77-8.48,14.69-1,1.75-1.59,3.72-2.6,5.46-1.36,2.34-2.86,4.61-4.44,6.81-2.4,3.35-5.32,6.4-7.27,10-1.79,3.3-4.32,6-6.12,9.28-.81,1.46-2.4,2.46-3.5,3.78-2.16,2.57-4.13,5.3-6.38,7.78a7,7,0,0,1-3.42,1.52c-1.28,1.87-1.65,4.59-4.44,5.57-.28.1-.49.53-.65.85-3,5.79-7.68,9.82-12.86,13.54-1.74,1.25-2.74,3.48-4.28,5.06a17.67,17.67,0,0,1-3.27,2.11c-.48.31-.94.65-1.39,1-1.73,1.36-3.51,2.67-5.13,4.15a7.59,7.59,0,0,0-1.17,2.29c-.58.39-1.32.87-2,1.38-2.52,1.79-5.1,3.5-7.52,5.43-1,.79-1.54,2.14-2.45,3.07-2,2.05-4.4,3.8-6.11,6.06a17.34,17.34,0,0,0-2.65,6.2,7.49,7.49,0,0,1-2.62,4.51c-1.49,1.27-1.6,4.17-2.32,6.35,1.12.15,2.45.76,3.33.37,3.12-1.37,6.08-3.1,9.12-4.66a6.08,6.08,0,0,1,1.43-.38,8.05,8.05,0,0,0,1.89-.42c4.45-2.3,9-4.25,13.36-6.92,4.15-2.56,8.55-5.22,13.69-5.77,1.92-.21,3.85-.93,5.72-.75a11.4,11.4,0,0,1,7.45,3.46,8.46,8.46,0,0,0,2.75,1.59c1.76.78,3.12,1.84,3.19,3.94.06,1.81-.93,2.88-2.5,3.65-.56.27-.89,1-1.21,1.39a28.59,28.59,0,0,1,3.37,2.71,2,2,0,0,1,0,1.92,30.52,30.52,0,0,1-4.15,4.18,14.27,14.27,0,0,1-3.52,1.68,12.8,12.8,0,0,0-2.61.91c-3.53,2.55-7.69,3.4-11.73,4.65-1.47.46-2.74,1.53-4.17,2.14-1.59.67-3.31,1-4.9,1.72-2.29,1-4.49,2.14-6.77,3.13-1.21.52-2.53.78-3.75,1.29-2,.81-3.91,1.65-5.79,2.63-2.23,1.16-4.25,3-6.6,3.64-4.47,1.27-8.14,4.05-12.35,5.79-5,2.07-10,4.22-14,7.94-1.34,1.24-2.1,3.1-3.12,4.67l-2.87,4.42-.52-.25.37,2.08-2.45,1.11.36.27a26.21,26.21,0,0,0-2,3.08,7.21,7.21,0,0,0-1.09,3.55,2.58,2.58,0,0,1-.86,2.35,3.7,3.7,0,0,0-1.11,2.37c.49,4.17-2.58,6.65-4.31,9.78a19.56,19.56,0,0,0-2.32,5.58,8.31,8.31,0,0,1-.9,2.55,15.13,15.13,0,0,0-1.84,5.25c-.4,3.66-2.44,6.55-4,9.63-.64,1.25-2,2.14-3.06,3.15-.79.75-1.83,1.1-1.57,2.72.13.82-1.13,1.94-1.91,2.79-1,1.05-1,2.08-.95,3.49,0,1.61-1.22,3.21-1.48,4.88-.37,2.39-2.14,3.39-3.77,4.61a12,12,0,0,0-1.41,1.2c-2.07,2.13-2.33,5.08-2.6,7.66s-1.86,3.58-3,5.25a3.45,3.45,0,0,0-.73,2c.26,2.24-1,3.73-2.21,5.35-1.67,2.25-4,4.08-4.45,7.15-.16,1-1.25,1.88-1.72,2.9-1.49,3.27-3,6.53-4.26,9.89-.86,2.33-1.33,4.64-3.24,6.61a22.48,22.48,0,0,0-4.71,8.41c-1.18,3.39-2.78,6.63-4.26,9.91-.18.4-.72.65-.86.77a17.71,17.71,0,0,0-2.67-2.75c-.34-.23-1.39.4-2,.8-.38.24-.55.8-.81,1.22.55.07,1.1.17,1.65.19a10.41,10.41,0,0,0,1.63-.34,17,17,0,0,1-1.49,3.3,12.45,12.45,0,0,0-1.84,4.73A8.42,8.42,0,0,1,322,607c-1.71,1.86-1.75,4.11-2.25,6.33a19.45,19.45,0,0,1-1.93,4.22c-.57,1.13-1.32,2.17-1.79,3.33a14.84,14.84,0,0,0-.86,3.39,3.77,3.77,0,0,1-2.25,3.31c-.24.1-.56.37-.59.6-.56,3.64-2.73,6.49-4.46,9.59-.82,1.46-.82,3.37-1.24,5.06-.54,2.17.1,4.7-1.91,6.44a.83.83,0,0,0-.29.57c.2,3.18-2.73,4.88-3.57,7.58-.19.62-1.1,1-1.72,1.54.35,2.2.33,2.23-3.84,4.94.15,1.89,1.21,4.6.28,5.91a43.05,43.05,0,0,0-3.61,7.18c-.77,1.65-2.5,2.83-3.65,4.33-.37.49-.6,1.68-.32,2,1,1,.25,1.8-.1,2.59-1.19,2.67-1.56,5.71-3.58,8a10.54,10.54,0,0,1-.81,1,8.85,8.85,0,0,0-3,6.9c0,3.81-1.57,5.22-5.28,5-.76,0-1.85-.09-2.26.35-2.8,3-6.7,2.89-10.22,3.95-5,1.52-8.1-1.29-11.17-4.38a2.52,2.52,0,0,1-.78-1.28c-.48-3.81-2.82-6.53-5.06-9.43-1.38-1.78-1.83-4.26-2.9-6.32-.7-1.35-1.81-2.49-2.64-3.78-2.49-3.87-2.49-8.33-2.86-12.68-.2-2.33-.26-4.68-.38-7-.17-3.4-.4-6.79-.48-10.19a52.47,52.47,0,0,1,.2-6.49c.86-8.61,1.41-17.29,2.87-25.8,1-5.91,3.22-11.63,5-17.39,1.32-4.16,2.8-8.29,4.39-12.36,1.45-3.72,3-7.43,4.77-11,3.35-6.74,6.74-13.48,10.43-20,3.23-5.73,6.91-11.2,10.39-16.79a100.4,100.4,0,0,1,10.22-14.41c.81-.91,1.16-2.22,1.89-3.22,2.73-3.72,5.49-7.43,8.33-11.07,1.4-1.79,3.09-3.36,4.53-5.12,1.82-2.23,3.46-4.61,5.3-6.82,1.3-1.56,2.92-2.86,4.23-4.41,2.44-2.9,6-4.68,7.76-8.32.78-1.61,2.67-2.67,4-4.05,1.16-1.23,2.15-2.61,3.32-3.83,3-3.14,6.1-6.23,9.13-9.35,1.46-1.51,2.84-3.1,4.33-4.58,1.67-1.67,3.4-3.3,5.14-4.9q2.35-2.16,4.78-4.23c1.44-1.23,3-2.37,4.4-3.59a6.06,6.06,0,0,0,1.26-1.45c1.94-3.19,5.14-4.87,8.09-6.86s5.92-4.19,8.91-6.25c2.22-1.53,4.63-2.83,6.69-4.54a49.17,49.17,0,0,0,6.4-6.42c.49-.6-.18-2.15-.32-3.3,2.5-.33,4-2.15,2.87-4.17-1.69,1.44-3.31,2.93-5,4.28a21.53,21.53,0,0,0-4.68,4.86c-1.14,1.66-3.63,2.37-5.51,3.54-.51.32-1.31.69-1.38,1.13-.29,1.88-1.86,2.25-3.15,3a26.41,26.41,0,0,1-3,1.53c-1.78.7-2.06,2.68-3.38,3.76-1,.83-1.79,2-2.9,2.63-2.27,1.3-4.83,2.13-7,3.54-3,1.93-5.86,4.07-7.41,7.56-.45,1-1.75,1.7-2.76,2.4-2.6,1.81-5.26,3.53-7.88,5.31s-5.2,3.55-7.65,5.22c-.47,1.08-.66,2.5-1.47,3.21-2.61,2.27-5.52,4.19-8.18,6.4-1.41,1.17-2.48,2.75-3.82,4a37.88,37.88,0,0,1-4,3.22,26.85,26.85,0,0,0-8,9.1,2.3,2.3,0,0,1-2,.8c-2.47-.73-4.44.1-6.75,1a13,13,0,0,1-9.86-.06,31.78,31.78,0,0,1-4.78-2.84,3.82,3.82,0,0,1-1.56-4.21c1.08-5.36,2.26-10.61,5.55-15.29,2.08-3,3.15-6.62,4.76-9.92,1.28-2.61,2.63-5.19,4.08-7.71a2.2,2.2,0,0,0-.28-2.91,6.38,6.38,0,0,0-6-1.72,4,4,0,0,1-2.49.26c-2.42-1.1-4.85-.23-7.26-.39a24.77,24.77,0,0,1-5.72-.72c-5.51-1.71-11-3.61-16.39-5.55-1.15-.41-2-1.6-3.2-2-3-.93-4.32,1.47-5.92,3.29-1.86,2.13-3.9,4.13-5.68,6.33-2.62,3.25-5.08,6.64-7.61,10-1,1.3-2,2.58-2.89,3.92s-1.55,2.48-2.28,3.75c-.17.3-.09.84-.31,1-3.93,2.79-6.36,6.9-9.4,10.47-2,2.4-4.42,4.53-6.28,7.06-1.73,2.35-2.85,5.15-4.47,7.59-2.2,3.34-4.61,6.54-7,9.78-.2.28-.66.41-.81.7-1.91,3.69-5.21,3.27-8.5,2.94a2.56,2.56,0,0,0-.86-.06c-5.71,1.53-9.41-2.86-13.89-4.87-.87-.39-1.58-2.22-1.52-3.35a43.72,43.72,0,0,1,1.24-7.85c.77-3.23,3.27-4.7,6.15-6,2.3-1.06,4.26-2.89,6.3-4.47a16.51,16.51,0,0,0,2.53-2.52c2.46-3,4.81-6,7.3-8.94,3.38-4,6.89-7.84,10.26-11.82,1-1.23,1.76-2.75,2.77-4,2.28-2.87,4.63-5.67,7-8.48s4.45-6.1,7.28-8.4c4.12-3.36,6.35-8.08,9.76-11.93s6.46-8.39,9.82-12.48c1.21-1.47,3.11-2.38,4.31-3.86,1.73-2.16,3.12-4.6,4.63-6.92s3-4.61,4.46-7a13.18,13.18,0,0,0,.84-2.22c-3.48-.29-6.51-.49-9.46.9a65.68,65.68,0,0,1-6.91,2.82c-4.21,1.42-8.52,2.57-12.71,4.07-1.78.64-3.29,2-5,2.81-4.82,2.24-9.66,4.43-14.56,6.49a6,6,0,0,1-3.78.49c-2.59-.85-5.11,0-7.63-.24a10.65,10.65,0,0,1-8.07-5.06c-1.22-1.86.08-4.16,1.15-6a23.7,23.7,0,0,1,8.73-8.75A67.3,67.3,0,0,1,203.1,394c3.59-1.53,7.28-2.83,10.91-4.27,2.4-1,4.72-2.13,7.15-3,3.64-1.28,7.35-2.36,11-3.53,4.5-1.43,8.92-3.23,13.52-4.18,3.38-.7,6.34-2.75,10-2.53,1.92.11,3.91-1.2,5.9-1.71,4.41-1.13,8.83-2.26,13.28-3.22,3.28-.7,6.46-.73,9.55,1.24a14.17,14.17,0,0,0,5.62,1.6c2.73.37,5.6,5.69,4.79,8.32a36.8,36.8,0,0,1-3.56,8.15,61.18,61.18,0,0,1-7.58,9.7A8.3,8.3,0,0,0,282,403.4c-.23.7,0,2.23.39,2.33a3.67,3.67,0,0,0,2.78-.32c2.41-1.69,4.6-3.7,7-5.42a63.54,63.54,0,0,1,6-3.74c2.66-1.5,5.39-2.89,8.1-4.3,3.47-1.81,7-3.51,10.41-5.43,5.42-3.07,11.23-5.31,16.76-8.12,2.83-1.44,5-4.2,7.72-5.83,2.29-1.35,4.32-3.41,7.21-3.61,1.58-.11,3.16-.17,4.74-.28,2.92-.21,5.16,1.34,7,3.18,3,3,5.11,6.5,4.36,11a5.44,5.44,0,0,1-1.88,2.75,21.54,21.54,0,0,1-10.22,4.77,4,4,0,0,0-2,1.2c-2,2.21-4.75,2.36-7.38,2.86-.21,0-.54,0-.6.14-2.06,4-6.56,3.54-9.76,5.45-2.43,1.45-4.87,2.9-7.32,4.32a12.3,12.3,0,0,1-1.78.75c-1.57.6-3.2,1.1-4.72,1.81-2.19,1-4.37,2.09-6.46,3.3a77.72,77.72,0,0,0-9.47,5.92,15.44,15.44,0,0,1-5.47,2.87,4.93,4.93,0,0,0-1.41,1c-5.17,3.91-10.32,7.85-15.51,11.73a12.89,12.89,0,0,1-3.42,2c-1.9.64-1.13,2.08-1.14,3.2,0,1.27.94,1.57,2.1,1.54,3.48-.1,7-.09,10.46-.22,5.73-.21,11.45-.64,17.18-.64a13,13,0,0,1,5.32,1.69c1.84.89,4.33.73,5.35,3.09a8.94,8.94,0,0,0,1,1.47,16.26,16.26,0,0,0,2.65,3.57,3.23,3.23,0,0,0,3-.12,50.46,50.46,0,0,0,4.5-3.75c4.52-3.69,9-7.38,13.61-11,4.11-3.25,8.31-6.39,12.42-9.64.94-.74,1.59-1.86,2.55-2.57,2.83-2.13,5.82-4.05,8.61-6.24s5.45-4.77,8.29-7c3.85-3,7.87-5.84,11.73-8.85,1.61-1.26,2.9-2.91,4.49-4.19,3.42-2.75,7-5.29,10.41-8.08,2.92-2.41,5.65-5.07,8.46-7.61.16-.14.29-.37.47-.43,4-1.25,4.15-5.17,5.6-8.17.87-1.8,1.73-3.61,2.47-5.46.68-1.7,1.19-3.47,1.67-4.88.56-.53,1.15-.85,1.4-1.35,1.83-3.67,3.59-7.38,5.39-11.07,2.41-5,4.85-9.88,7.23-14.85,1.2-2.5,2.26-5.08,3.44-7.59.45-1,1.15-1.78,1.6-2.74,1.2-2.58,2.31-5.21,3.48-7.8,2.19-4.87,4.36-9.75,6.63-14.59,1.76-3.74,3.49-7.51,5.53-11.09,2.95-5.18,6.14-10.23,9.27-15.31,3.33-5.41,6.59-10.88,10.09-16.18,1.68-2.55,3.94-4.71,5.8-7.14,4.53-5.89,8.84-12,13.52-17.72a113.51,113.51,0,0,1,9.49-10c2.45-2.36,5.31-4.3,7.77-6.64,1.8-1.71,3.19-3.85,4.88-5.68a36.79,36.79,0,0,1,5.09-4.82c.72-.53,2.17-.11,3.28-.06a9.31,9.31,0,0,0,2.29.24C530.21,203.65,530.72,203.85,533.36,209.26ZM262.15,675l.93.39A13.4,13.4,0,0,0,266,673.1a39.14,39.14,0,0,0,3.67-6c1.47-3,2.54-6.21,4-9.2,2.46-4.89,5.27-9.6,7.67-14.51,1.73-3.54,3-7.29,4.53-10.93.95-2.28,1.88-4.57,3-6.8.89-1.85,2-3.61,3-5.39s2.17-3.43,3-5.25,1.29-3.73,2.08-5.54c1.54-3.53,3.17-7,4.8-10.5.82-1.75,1.73-3.46,2.6-5.19l7.35-14.49c1.05-2.08,2.12-4.16,3.16-6.24.35-.69.58-1.45,1-2.11.65-1.09,2-2.16,1.94-3.17-.1-1.46.64-2,1.39-2.82a4.78,4.78,0,0,0,.81-1.24c2.12-4.49,4.2-9,6.33-13.49q2-4.23,4.2-8.39c.21-.4.89-.54,1.36-.81l-.5-.22c1-1.75,2-3.51,3-5.24.84-1.41,1.84-2.73,2.58-4.19,1.09-2.14,1.92-4.42,3-6.55,2.05-3.91,4.32-7.71,6.32-11.64,1-2.06,1.69-4.32,2.59-6.46a19.35,19.35,0,0,1,1.4-2.41c.8-1.32,2.12-2.57,2.28-4a7,7,0,0,1,1.82-4,14.19,14.19,0,0,0,1.48-3.07c.36-.77.7-1.57,1.13-2.31,1.26-2.13,2-4.29.72-6.88a50.76,50.76,0,0,0-4.22,4.09c-1,1.18-1.66,2.42-3.32,2.93a5.65,5.65,0,0,0-2.42,2.25c-1,1.39-1.47,3.29-2.7,4.35-4.54,3.95-9.09,7.82-12.75,12.67-1.47,1.95-3.45,3.5-5.11,5.31-2.1,2.29-4.16,4.61-6.16,7-2.74,3.28-5.38,6.65-8.11,9.94-.79,1-1.81,1.73-2.57,2.71-1.86,2.42-3.61,4.93-5.44,7.38-1.24,1.65-2.65,3.19-3.77,4.91-1.58,2.41-2.91,5-4.43,7.44-2.24,3.61-4.55,7.18-6.83,10.77-.19.3-.34.78-.61.86-1.74.56-1.81,2.19-2.36,3.51a6.31,6.31,0,0,1-.36,1q-3.18,5-6.39,9.94a20.26,20.26,0,0,0-1.86,2.86c-.83,2-1.46,4-2.16,6-.5,1.44-.91,2.91-1.51,4.31-.2.46-.84.74-1.25,1.07-.58,1.15-1.22,2.36-1.8,3.6a15,15,0,0,0-.94,2.35c-.38,1.36-.57,2.78-1,4.12-.79,2.57-1.68,5.11-2.53,7.66a9.54,9.54,0,0,1-1.05,2.92c-1.61,2-1.74,4.4-2.19,6.75-.41,2.15-1.09,4.25-1.65,6.34l-1.57-.21c1.83,2,.74,4.07.41,6.06-.53,3.2-1.2,6.39-1.45,9.62a72.36,72.36,0,0,0,.2,8c.11,3.11-.3,6.36.49,9.28s-.2,6.11,1.73,8.74a1.19,1.19,0,0,1,.08.64C262.15,672.57,262.15,673.76,262.15,675ZM500.49,258.68c-1.1,1-2.59,1.76-2.62,2.55-.11,2.65-1.66,4.13-3.32,5.88a44.49,44.49,0,0,0-9.94,16.44c-1.06,3.1-3.27,5.84-5.07,8.66-1.06,1.66-2.42,3.12-3.5,4.76-.6.92-.7,2.2-1.39,3-2,2.37-3.68,4.74-4.08,8-.2,1.63-1.38,3.16-2.21,4.68-.37.68-1.16,1.14-1.47,1.84-1.47,3.21-2.88,6.44-4.2,9.71a2.36,2.36,0,0,0,.31,2c.18.25,1.4.13,1.76-.22a113.46,113.46,0,0,0,7.94-8.11,35.76,35.76,0,0,0,4.94-7.45c2.18-4.54,5.39-8.37,8-12.6,2.23-3.59,4.73-7,6.78-10.71s3.62-7.52,5.46-11.27c1.23-2.49,2.65-4.89,3.81-7.41,1.25-2.7,2.34-5.48,3.45-8.25.75-1.86,1.5-3.73,2.12-5.64.43-1.32.18-2.52-.89-3l-4.09,2.81C504.77,256.6,499.45,257.05,500.49,258.68ZM358.37,526a11.73,11.73,0,0,0-1.43,2.91c-.05.39,1,1.37,1.19,1.28.69-.32,1.61-.9,1.71-1.51S359.15,527.3,358.37,526Z" transform="translate(-169.26 -204.29)"/><circle cx="249.46" cy="224.57" r="5.06"/><circle cx="185.81" cy="322.45" r="5.06"/><circle cx="154.79" cy="389.26" r="5.06"/></svg>